<mxfile host="app.diagrams.net" modified="2021-08-21T03:01:33.370Z" agent="5.0 (Macintosh; Intel Mac OS X 10_15_7) AppleWebKit/537.36 (KHTML, like Gecko) Chrome/92.0.4515.159 Safari/537.36" etag="yO3cWJCj37gLLZSMBxkE" version="14.9.6" type="github">
  <diagram id="OkaMXKPVzvulaY8ZSA5U" name="Page-1">
    <mxGraphModel dx="946" dy="517" grid="1" gridSize="10" guides="1" tooltips="1" connect="1" arrows="1" fold="1" page="1" pageScale="1" pageWidth="827" pageHeight="1169" math="0" shadow="0">
      <root>
        <mxCell id="0" />
        <mxCell id="1" parent="0" />
        <mxCell id="YCv4imGaxoh3ncbBao5J-3" value="" style="edgeStyle=orthogonalEdgeStyle;rounded=0;orthogonalLoop=1;jettySize=auto;html=1;" edge="1" parent="1" source="YCv4imGaxoh3ncbBao5J-1" target="YCv4imGaxoh3ncbBao5J-2">
          <mxGeometry relative="1" as="geometry" />
        </mxCell>
        <mxCell id="YCv4imGaxoh3ncbBao5J-1" value="小黄" style="shape=umlActor;verticalLabelPosition=bottom;verticalAlign=top;html=1;outlineConnect=0;" vertex="1" parent="1">
          <mxGeometry x="160" y="120" width="30" height="60" as="geometry" />
        </mxCell>
        <mxCell id="YCv4imGaxoh3ncbBao5J-2" value="小明" style="shape=umlActor;verticalLabelPosition=bottom;verticalAlign=top;html=1;outlineConnect=0;" vertex="1" parent="1">
          <mxGeometry x="384" y="120" width="30" height="60" as="geometry" />
        </mxCell>
      </root>
    </mxGraphModel>
  </diagram>
</mxfile>
